<?xml version="1.0" standalone="no"?>
<!DOCTYPE svg PUBLIC "-//W3C//DTD SVG 20010904//EN"
 "http://www.w3.org/TR/2001/REC-SVG-20010904/DTD/svg10.dtd">
<svg version="1.0" xmlns="http://www.w3.org/2000/svg"
 width="600.000000pt" height="600.000000pt" viewBox="0 0 600.000000 600.000000"
 preserveAspectRatio="xMidYMid meet">

<g transform="translate(0.000000,600.000000) scale(0.100000,-0.100000)"
fill="#000000" stroke="none">
<path d="M2805 5558 c-11 -7 -47 -13 -80 -15 -81 -4 -94 -6 -89 -15 5 -7 -10
-12 -28 -9 -5 0 -8 -4 -8 -10 0 -5 -5 -7 -10 -4 -6 4 -27 -3 -46 -14 -19 -12
-43 -21 -52 -21 -9 0 -30 -16 -45 -35 -15 -19 -37 -35 -47 -35 -11 0 -20 -4
-20 -10 0 -5 -12 -10 -28 -10 -15 0 -39 -11 -54 -25 -15 -14 -31 -25 -35 -24
-21 4 -32 -2 -27 -15 6 -14 -10 -29 -36 -33 -8 -1 -16 -7 -18 -13 -6 -17 -44
-50 -59 -50 -7 0 -13 -4 -13 -10 0 -17 -39 -50 -60 -50 -14 0 -29 -15 -48 -47
-15 -26 -37 -58 -50 -71 -12 -13 -20 -27 -17 -32 9 -14 -18 -50 -36 -50 -20 0
-49 -31 -49 -54 0 -23 -27 -73 -45 -83 -8 -5 -16 -23 -18 -40 -2 -18 -10 -39
-17 -48 -8 -9 -15 -41 -15 -70 -1 -33 -10 -69 -25 -96 -19 -38 -23 -58 -22
-146 0 -75 -4 -105 -14 -114 -10 -8 -13 -30 -9 -88 2 -42 0 -93 -4 -113 -5
-20 -6 -39 -3 -42 5 -6 7 -19 16 -101 4 -42 10 -81 28 -183 10 -62 46 -152 48
-122 10 169 11 208 1 214 -16 10 -14 41 3 55 8 7 18 30 21 53 5 28 10 36 16
27 11 -19 18 -9 21 34 1 20 7 37 14 37 14 0 27 28 19 40 -3 5 -1 12 5 15 8 5
7 11 -1 21 -8 10 -8 14 0 14 6 0 11 13 11 29 0 15 9 40 21 55 11 14 17 26 14
26 -4 0 -2 7 6 16 7 9 9 18 3 22 -12 9 -10 40 5 76 6 16 10 35 7 43 -3 7 0 13
7 13 18 0 46 97 33 111 -8 9 -8 10 0 6 7 -4 17 6 24 23 15 36 26 38 34 6 4
-18 11 -23 26 -19 10 3 18 8 17 12 -2 8 49 71 58 71 4 0 4 -7 1 -16 -5 -12 0
-15 27 -12 27 2 32 0 29 -17 -2 -18 -2 -19 8 -2 6 9 8 22 4 28 -7 12 45 7 68
-7 7 -4 4 2 -6 14 -17 20 -18 22 -2 22 27 0 47 25 33 40 -10 10 -7 11 13 6 14
-3 19 -3 13 0 -7 3 -13 12 -13 20 0 8 -4 14 -10 14 -5 0 -10 5 -10 11 0 6 7 9
15 5 8 -3 15 0 15 6 0 9 3 9 11 1 6 -6 18 -9 27 -5 11 4 14 1 9 -11 -12 -32
11 -17 27 18 18 37 26 41 42 25 11 -11 54 -2 54 11 0 5 -7 9 -15 9 -8 0 -15 5
-15 11 0 7 8 6 23 -4 12 -8 21 -22 19 -30 -2 -11 4 -14 20 -10 22 4 22 4 -2
-11 l-25 -16 33 6 c20 4 32 3 32 -5 0 -6 -10 -12 -22 -12 -18 -1 -19 -2 -5 -6
9 -2 15 -10 11 -16 -3 -7 1 -4 9 5 16 20 56 16 73 -7 14 -19 28 -19 20 0 -3 8
-1 15 3 15 5 0 12 -6 14 -12 3 -8 6 -6 6 5 1 10 -6 17 -16 17 -12 0 -9 5 11
15 39 21 52 19 31 -5 -14 -15 -15 -20 -4 -20 11 0 11 -2 -1 -10 -13 -8 -13
-10 -1 -10 11 0 10 -4 -4 -13 -18 -14 -14 -37 8 -37 8 0 8 3 -2 9 -9 6 -10 11
-2 15 6 4 11 4 11 1 0 -4 7 0 15 9 8 8 15 23 15 33 0 15 2 16 10 3 5 -8 10
-11 10 -6 0 6 6 1 14 -10 13 -17 14 -15 10 26 -4 32 -3 41 4 31 8 -12 14 -12
25 -3 12 10 16 10 20 -2 3 -8 15 -12 30 -9 14 3 28 -1 32 -8 5 -7 4 -10 -3 -5
-6 3 -13 2 -16 -3 -8 -13 44 -20 71 -10 17 6 25 5 29 -5 8 -21 70 6 66 28 -2
9 2 16 8 16 5 0 10 11 10 25 0 15 -6 25 -15 25 -8 0 -19 9 -25 20 -9 17 -8 20
11 20 12 0 23 -8 26 -19 6 -25 42 -39 76 -30 19 5 27 4 27 -6 0 -7 7 -18 16
-25 12 -11 15 -11 12 0 -2 7 3 15 10 17 6 3 12 0 12 -6 0 -6 5 -11 11 -11 5 0
7 6 3 13 -3 6 5 -1 20 -17 31 -35 32 -40 6 -26 -16 9 -22 8 -26 -5 -3 -8 -17
-15 -30 -15 -13 0 -24 -4 -24 -9 0 -13 18 -23 22 -12 1 4 14 12 27 16 20 6 23
4 17 -10 -4 -13 -2 -16 9 -12 11 5 13 -1 10 -26 l-5 -32 12 28 c7 15 20 27 30
27 24 0 23 -8 -4 -32 -18 -15 -19 -18 -5 -14 9 3 17 1 17 -3 0 -5 3 -16 6 -25
3 -9 1 -16 -6 -16 -6 0 -8 5 -5 10 4 6 -6 10 -22 10 -24 -1 -25 -2 -10 -11 9
-5 17 -18 17 -27 0 -12 3 -14 8 -4 11 16 52 -21 51 -46 0 -13 -2 -14 -6 -2
-13 32 -27 39 -45 23 -10 -9 -18 -11 -18 -6 0 6 -9 13 -20 16 -17 4 -19 1 -14
-21 8 -33 27 -56 22 -27 -2 15 2 20 19 19 13 -1 20 3 17 7 -3 5 -1 9 4 9 5 0
12 -10 16 -22 8 -33 7 -40 -4 -33 -6 4 -7 12 -4 18 4 7 -6 -1 -22 -18 -17 -16
-27 -31 -22 -33 17 -8 7 -20 -12 -15 -26 7 -23 -14 5 -40 16 -15 17 -20 5 -27
-12 -8 -12 -10 -1 -10 7 0 11 -6 8 -14 -4 -10 -1 -13 9 -9 8 3 13 12 10 20 -4
9 -1 13 6 10 7 -2 12 -10 10 -17 -2 -8 4 -11 18 -7 11 3 23 1 26 -4 3 -5 -5
-9 -18 -10 -13 0 -17 -3 -10 -6 6 -2 12 -14 13 -26 0 -12 3 -16 6 -9 7 18 31
14 29 -5 -1 -13 5 -17 22 -16 16 2 22 -2 22 -16 0 -11 9 -23 20 -26 11 -3 20
-11 20 -16 0 -6 -6 -7 -12 -4 -7 4 -5 0 6 -9 10 -8 15 -19 11 -25 -3 -6 1 -11
9 -11 9 0 16 -6 16 -14 0 -8 5 -18 12 -22 6 -4 9 -3 6 2 -3 5 0 14 7 21 10 9
14 7 18 -13 3 -19 -1 -28 -17 -35 -16 -7 -11 -8 17 -4 36 6 38 5 32 -15 -6
-20 -5 -21 15 -10 19 10 21 9 20 -7 -1 -10 -1 -21 0 -25 4 -12 7 -27 9 -37 0
-5 9 -11 19 -14 9 -2 -6 -3 -35 -2 -28 2 -56 6 -62 10 -6 3 -11 2 -11 -3 0 -5
-13 -8 -30 -7 -16 1 -30 -2 -30 -6 0 -4 -8 -5 -19 -2 -10 3 -22 0 -25 -6 -4
-6 -16 -11 -27 -11 -10 0 -19 -4 -19 -8 0 -5 -27 -7 -61 -6 -34 1 -79 -4 -102
-12 -23 -8 -47 -12 -54 -10 -8 3 -13 -2 -13 -12 0 -15 -2 -15 -10 -2 -8 13
-10 12 -10 -4 0 -16 -3 -17 -12 -8 -17 17 -26 15 -24 -4 0 -9 -5 -19 -12 -21
-7 -3 -12 -1 -11 4 4 21 -3 24 -25 9 -23 -14 -25 -14 -29 2 -3 11 -5 9 -6 -8
-1 -20 -3 -22 -11 -10 -6 10 -10 11 -10 3 0 -7 -7 -13 -16 -13 -8 0 -12 5 -9
10 13 21 -20 9 -47 -17 -22 -21 -28 -23 -28 -10 0 10 -5 14 -15 11 -8 -4 -15
-2 -15 4 0 5 -17 8 -37 6 -21 -1 -30 -1 -21 2 16 5 16 6 0 23 -9 9 -26 15 -36
13 -13 -4 -17 -1 -12 6 10 16 -40 19 -131 8 -18 -2 -35 -1 -38 4 -2 4 -24 6
-47 4 -24 -2 -55 1 -70 7 -33 13 -122 -4 -151 -29 -15 -13 -22 -14 -37 -4 -20
12 -46 7 -67 -14 -9 -9 -8 -15 6 -28 10 -9 22 -16 27 -16 5 0 21 -11 36 -25
15 -14 33 -22 41 -19 8 3 19 -2 26 -10 7 -8 18 -13 25 -10 18 7 29 -25 15 -42
-6 -8 -21 -13 -33 -12 -11 0 -33 -4 -47 -10 -15 -6 -30 -8 -35 -4 -4 4 -4 1 0
-5 4 -8 2 -13 -7 -13 -8 0 -53 -13 -100 -29 -47 -16 -89 -26 -92 -23 -3 3 -5
-2 -5 -11 0 -9 -7 -18 -15 -18 -8 -1 -19 -3 -25 -4 -5 -1 -14 -3 -20 -4 -5 0
-10 -12 -10 -26 0 -13 -6 -30 -13 -37 -8 -7 -12 -20 -10 -29 4 -14 10 -15 41
-7 93 25 205 18 289 -18 41 -18 41 -18 21 -36 -21 -18 -21 -18 13 -18 45 0 79
10 79 22 0 6 -9 8 -20 5 -11 -3 -20 -1 -20 4 0 8 15 13 33 10 4 0 7 6 7 14 0
17 36 20 60 5 12 -7 10 -11 -10 -19 -15 -6 -19 -10 -9 -10 9 -1 32 6 51 14 26
10 38 11 46 3 20 -20 13 -30 -15 -23 -16 4 -24 3 -20 -1 4 -4 -3 -13 -15 -20
-21 -11 -19 -12 19 -9 l41 3 -5 -37 c-6 -33 -23 -54 -88 -109 -8 -7 -12 -18
-9 -24 4 -7 2 -8 -5 -4 -11 7 -48 -21 -39 -30 7 -7 68 17 68 27 0 5 6 9 13 9
8 0 20 11 27 25 9 17 22 25 41 25 22 0 26 4 22 20 -4 14 0 20 11 20 9 0 16 6
16 13 0 8 4 7 10 -3 5 -8 10 -10 10 -5 0 6 8 20 18 32 l17 23 1 -25 c1 -14 -2
-22 -7 -19 -6 3 -7 -5 -3 -20 4 -16 2 -26 -5 -26 -17 0 -1 -29 21 -36 12 -4
24 -1 29 7 4 7 11 10 14 7 4 -4 -6 -20 -22 -35 -17 -17 -35 -49 -41 -74 -6
-25 -21 -57 -32 -72 -19 -24 -19 -26 -3 -29 10 -2 32 1 48 7 17 6 43 10 58 9
22 -1 28 3 25 15 -4 17 26 53 36 44 3 -4 6 1 6 9 0 20 47 71 59 63 5 -3 12 -1
16 4 3 6 12 8 19 5 8 -3 16 2 18 12 3 16 4 16 19 1 16 -15 17 -15 22 1 2 9 18
25 36 35 28 17 31 17 31 1 0 -10 5 -14 15 -10 11 4 15 -2 15 -23 0 -16 7 -34
15 -41 13 -11 13 -15 3 -21 -12 -8 26 -13 72 -10 10 0 11 -1 3 -5 -27 -12 -12
-34 27 -40 22 -4 37 -10 34 -15 -3 -5 1 -9 10 -9 8 0 16 -5 18 -11 2 -7 20
-14 38 -16 19 -2 43 -4 52 -5 9 -1 14 -7 11 -12 -4 -5 3 -7 15 -4 12 4 22 2
22 -4 0 -5 4 -6 10 -3 5 3 10 -2 11 -12 0 -10 3 -13 6 -5 7 18 20 15 26 -8 3
-11 -2 -29 -11 -40 -16 -18 -20 -18 -57 -5 -22 8 -53 14 -70 14 -16 -1 -43 4
-60 11 -16 7 -36 12 -42 11 -7 -1 -13 2 -13 7 0 10 -36 9 -46 -1 -11 -10 -46
-8 -40 2 11 17 -48 20 -61 3 -7 -10 -13 -13 -13 -8 0 5 -7 3 -15 -4 -8 -6 -19
-9 -25 -5 -5 3 -10 0 -10 -8 0 -8 -7 -18 -16 -21 -25 -9 -74 -7 -74 4 0 6 -9
6 -25 0 -14 -5 -25 -6 -25 -2 0 17 -49 10 -125 -17 -44 -16 -88 -32 -99 -35
-13 -5 -17 -13 -14 -31 3 -14 2 -25 -2 -25 -10 0 -31 -50 -25 -60 3 -5 -3 -15
-15 -22 -22 -14 -27 -48 -7 -49 6 0 3 -4 -8 -9 -15 -7 -16 -9 -4 -9 20 -1 33
-42 17 -56 -8 -7 -9 -6 -3 4 5 9 3 12 -6 9 -22 -7 -41 -55 -48 -120 -1 -5 -8
-8 -17 -8 -8 0 -13 -4 -10 -9 3 -4 -1 -17 -9 -27 -8 -10 -15 -14 -15 -9 0 6
-9 11 -20 12 -11 1 -18 -2 -15 -8 4 -5 -2 -12 -11 -16 -21 -8 -58 -43 -45 -43
5 0 7 -9 4 -20 -3 -11 -10 -17 -16 -13 -6 3 -7 1 -3 -6 4 -6 0 -19 -9 -28 -9
-9 -13 -19 -8 -22 16 -12 14 -33 -4 -29 -10 2 -17 10 -15 17 2 9 -3 11 -15 7
-17 -6 -17 -5 0 8 20 15 22 27 5 24 -7 -2 -14 7 -16 20 -2 12 -8 22 -15 22 -6
0 -1 9 11 20 25 23 30 39 7 20 -9 -7 -18 -10 -22 -6 -3 3 -1 6 5 6 15 0 11 38
-5 44 -7 3 -13 1 -13 -4 0 -6 -7 -10 -16 -10 -8 0 -12 -4 -9 -10 3 -5 1 -10
-5 -10 -6 0 -13 7 -17 16 -3 8 -12 13 -20 10 -8 -3 -11 -1 -8 4 3 6 12 10 19
10 8 0 16 9 19 20 3 13 0 20 -9 20 -8 0 -14 11 -15 28 -1 18 -3 21 -6 9 -3
-11 -11 -16 -19 -13 -8 3 -14 1 -14 -3 0 -5 -6 -11 -13 -14 -10 -4 -13 3 -12
24 1 17 -4 30 -13 34 -10 4 -12 0 -8 -11 4 -11 1 -14 -11 -12 -10 2 -19 12
-21 23 -2 11 -8 25 -14 30 -6 6 -7 3 -2 -9 5 -13 4 -17 -4 -12 -7 4 -12 1 -12
-7 0 -8 15 -22 33 -31 31 -15 31 -16 5 -14 -15 1 -24 6 -22 10 3 4 0 8 -5 8
-21 0 -11 -41 12 -50 22 -9 22 -10 -3 -8 -57 3 -65 -1 -67 -32 -1 -17 2 -28 6
-25 5 2 8 -6 7 -19 0 -13 -4 -22 -8 -19 -5 2 -8 -5 -8 -16 0 -20 25 -30 32
-12 2 5 13 5 26 0 22 -8 22 -29 1 -29 -6 0 -7 5 -4 10 11 18 -10 10 -28 -10
-22 -26 -21 -29 2 -23 22 6 37 -12 20 -23 -8 -4 -9 -3 -5 4 4 7 2 12 -3 12 -6
0 -11 -7 -11 -16 0 -11 6 -15 19 -11 13 3 18 1 14 -9 -2 -7 -11 -10 -19 -7 -8
3 -14 0 -14 -6 0 -6 4 -11 9 -11 5 0 13 -9 16 -20 3 -11 11 -20 16 -20 6 0 7
6 3 13 -5 8 -2 8 9 -2 21 -17 22 -32 2 -25 -8 4 -15 1 -15 -5 0 -6 7 -11 15
-11 15 0 18 -14 16 -85 -1 -30 1 -36 8 -25 9 12 11 10 11 -12 0 -15 7 -33 15
-41 12 -13 12 -17 1 -26 -7 -6 -21 -9 -30 -5 -28 11 -23 0 46 -103 15 -23 41
-51 58 -63 46 -33 62 -80 62 -187 0 -94 -6 -118 -23 -107 -6 4 -6 11 2 20 8
10 8 14 0 14 -6 0 -11 7 -11 15 0 8 -7 15 -16 15 -25 0 -144 -43 -139 -50 2
-3 -10 -11 -26 -17 -48 -18 -31 7 27 40 l49 28 -45 -7 c-110 -16 -532 -209
-813 -371 -73 -42 -177 -102 -232 -133 -109 -62 -622 -324 -695 -355 -99 -42
-139 -79 -185 -169 -23 -46 -57 -104 -74 -129 l-31 -46 0 -240 0 -241 3000 0
3000 0 0 549 0 550 -22 6 c-74 23 -343 133 -458 188 -74 35 -173 80 -220 100
-47 19 -141 58 -209 87 -206 86 -509 196 -636 230 -66 17 -130 38 -141 45 -47
30 -150 65 -188 64 -23 0 -35 -3 -28 -6 24 -9 12 -22 -18 -18 -18 3 -28 0 -25
-5 4 -6 2 -10 -3 -10 -11 0 -3 -48 9 -56 14 -8 11 -24 -5 -24 -7 0 -16 8 -20
17 -38 107 -40 122 -39 254 0 90 4 124 19 154 12 25 14 40 7 42 -11 4 -3 59
12 84 5 7 12 31 17 53 21 95 25 126 15 126 -6 0 -6 5 0 13 6 6 14 30 18 52 4
22 10 44 13 50 4 5 8 21 9 35 3 36 7 53 17 68 5 8 4 18 -2 24 -7 7 -7 19 -2
34 8 20 6 24 -8 24 -10 0 -13 3 -6 8 6 4 10 22 8 40 -2 29 0 33 17 29 10 -3
17 -1 13 4 -3 5 -17 9 -32 9 -21 0 -24 2 -12 10 8 5 11 10 5 10 -5 0 -4 4 4 9
7 5 10 14 7 20 -4 6 -12 9 -17 6 -5 -4 -9 3 -9 15 0 19 1 20 16 6 21 -22 27
-20 14 4 -6 11 -15 20 -20 20 -6 0 -10 5 -10 11 0 6 9 8 20 4 11 -4 20 -2 20
4 0 6 -4 11 -9 11 -6 0 -9 8 -9 18 0 9 -7 36 -15 59 -10 26 -12 45 -6 48 5 4
3 13 -6 21 -8 9 -15 28 -15 43 0 20 -5 27 -20 28 -11 1 -20 -2 -20 -7 0 -5 -6
-7 -14 -4 -7 3 -16 -2 -20 -11 -3 -9 -2 -13 4 -10 6 3 7 -1 4 -10 -5 -12 -9
-13 -21 -4 -11 10 -15 8 -19 -9 -4 -11 -13 -23 -22 -27 -13 -5 -12 -8 6 -21
12 -8 22 -23 21 -32 0 -14 -2 -14 -6 -2 -8 19 -42 -107 -37 -134 3 -21 3 -21
-12 -1 -16 20 -16 20 -9 -2 5 -20 3 -23 -22 -24 l-28 -1 25 -8 c17 -5 19 -8 8
-9 -10 -1 -18 -8 -18 -16 0 -8 -6 -15 -12 -16 -7 0 -4 -4 7 -9 17 -7 17 -9 3
-9 -31 -2 -33 0 -30 17 1 10 -10 3 -28 -18 -17 -19 -28 -40 -25 -47 2 -7 0
-13 -5 -13 -6 0 -9 -3 -8 -7 1 -5 -4 -19 -11 -31 -9 -17 -19 -22 -32 -19 -28
7 -44 -33 -21 -50 9 -7 11 -13 6 -13 -6 0 -14 3 -18 7 -4 5 -12 9 -17 9 -5 1
-13 2 -17 3 -5 0 -14 13 -20 27 -9 19 -9 24 0 18 8 -5 9 -2 5 10 -4 10 -7 20
-7 22 0 2 -9 4 -20 4 -11 0 -20 5 -20 11 0 6 9 8 23 4 21 -6 21 -5 2 7 -21 13
-26 15 -51 17 -12 1 -15 8 -12 26 3 13 1 22 -4 19 -14 -9 -38 16 -39 40 0 20
-1 21 -9 1 -6 -15 -9 -16 -9 -4 -1 9 -19 23 -43 33 -31 12 -39 19 -29 25 11 7
11 10 0 15 -11 5 -11 7 -1 12 6 3 12 10 12 15 0 6 -4 8 -8 5 -4 -2 -6 12 -3
32 3 29 5 33 11 17 4 -11 5 -25 3 -31 -7 -19 11 -23 31 -9 10 8 16 20 13 27
-2 7 0 20 4 30 6 11 4 18 -6 22 -8 3 -15 13 -15 21 0 9 -4 14 -8 11 -5 -3 -9
1 -9 9 0 8 4 15 8 15 5 0 6 7 3 15 -5 11 -2 14 12 9 15 -6 17 -4 7 6 -10 11
-15 11 -27 0 -9 -7 -24 -9 -33 -6 -15 6 -15 8 -3 16 13 8 12 10 -2 10 -20 0
-25 20 -5 20 6 0 4 5 -5 11 -22 12 -24 59 -3 59 8 0 16 -4 16 -10 1 -5 2 -14
3 -19 0 -5 5 -13 10 -18 5 -4 6 -3 3 3 -4 7 4 13 22 16 21 3 28 1 24 -9 -3 -7
0 -13 7 -13 6 0 8 -4 5 -10 -3 -5 -1 -10 4 -10 6 0 11 5 11 11 0 6 13 0 29
-13 15 -13 26 -26 24 -30 -2 -5 3 -8 12 -8 9 0 13 5 10 10 -7 12 2 12 30 0 11
-5 14 -9 8 -9 -7 -1 -13 -6 -13 -13 0 -6 -7 -20 -17 -30 -15 -17 -15 -18 8
-19 13 0 18 -3 12 -6 -26 -10 -13 -25 15 -18 31 8 54 13 65 14 10 1 9 29 -3
36 -6 4 -7 -1 -3 -11 4 -12 3 -15 -5 -10 -7 4 -12 14 -12 23 0 11 6 14 23 9
21 -5 23 -3 19 24 -3 21 -8 27 -20 22 -10 -4 -12 -7 -4 -10 19 -6 14 -21 -7
-19 -15 1 -18 7 -15 33 4 35 -25 72 -48 58 -11 -6 -11 -5 0 8 9 11 9 17 2 20
-6 2 -12 13 -13 25 0 12 -4 21 -7 21 -18 -1 -49 16 -43 25 4 6 0 8 -10 4 -10
-3 -17 -2 -17 3 0 13 -32 50 -44 50 -15 0 -55 49 -45 55 5 4 9 3 9 -1 0 -3 7
-1 15 6 8 7 12 16 9 21 -6 10 25 7 43 -4 9 -6 11 -3 7 7 -4 10 -1 16 7 16 11
0 11 3 -1 11 -12 9 -12 10 3 5 10 -3 23 -6 28 -6 5 0 10 -10 10 -22 1 -17 2
-19 6 -5 4 16 43 25 43 9 0 -13 60 -44 76 -38 8 3 14 -1 14 -9 0 -9 8 -12 25
-9 13 2 43 -2 67 -10 26 -9 46 -12 53 -6 13 11 69 -23 58 -35 -5 -4 -2 -5 5
-1 8 5 10 16 6 29 -6 19 -5 20 9 9 17 -14 19 -13 47 43 12 24 21 29 42 27 14
-1 29 2 33 8 10 16 35 11 35 -7 0 -14 2 -15 9 -5 4 8 12 12 16 10 5 -1 9 7 10
20 1 12 -2 22 -7 22 -4 0 -8 7 -8 15 0 8 -8 15 -17 16 -11 0 -13 3 -5 6 14 5
17 43 3 43 -5 0 -8 8 -6 18 1 9 -2 23 -7 29 -6 7 -8 22 -5 32 3 11 0 22 -5 23
-6 2 -12 22 -13 43 -2 22 -8 41 -14 43 -6 2 -11 12 -11 22 0 10 -4 20 -10 22
-5 2 -11 17 -12 33 -1 17 -8 36 -15 43 -7 7 -18 21 -25 30 -7 9 -30 26 -51 37
-22 12 -40 30 -44 43 -4 18 -8 21 -14 10 -7 -10 -9 -9 -9 5 0 9 -5 17 -11 17
-6 0 -9 6 -6 14 4 10 -3 18 -21 24 -21 7 -23 9 -9 15 9 3 17 2 17 -3 0 -6 8
-10 17 -10 13 0 14 3 6 11 -16 16 -4 39 21 39 16 0 18 -2 7 -9 -9 -6 -11 -15
-6 -27 8 -18 8 -18 12 -1 3 9 11 17 18 17 7 0 16 -8 18 -17 3 -13 5 -11 7 7 1
14 4 35 5 47 1 12 -1 20 -6 18 -4 -3 -10 -1 -14 5 -3 5 -2 10 4 10 13 0 5 42
-11 52 -10 6 -10 8 0 8 8 0 10 5 6 12 -5 8 -2 9 11 4 14 -5 16 -4 7 7 -7 8 -9
17 -5 20 3 4 1 7 -4 7 -6 0 -13 -4 -15 -9 -1 -5 -12 -3 -23 6 -16 12 -16 14
-3 10 10 -3 20 -2 23 3 4 6 -2 10 -12 11 -10 0 -13 3 -5 6 17 7 15 48 -3 66
-11 12 -12 17 -2 20 9 4 9 6 0 6 -21 2 -15 21 10 31 15 6 17 9 6 9 -12 1 -18
12 -21 36 -2 19 0 35 4 35 4 0 8 9 8 21 0 11 4 18 9 14 5 -3 12 -1 16 5 14 22
26 8 23 -27 -2 -28 1 -38 17 -44 11 -4 14 -8 8 -8 -21 -1 -14 -21 7 -21 11 0
20 -4 20 -9 0 -6 -9 -8 -19 -6 -11 2 -22 -3 -25 -11 -3 -8 -1 -14 4 -14 6 0
10 -5 10 -11 0 -5 -4 -7 -10 -4 -5 3 -10 -1 -10 -9 0 -9 5 -16 10 -16 6 0 10
-7 10 -15 0 -8 5 -15 10 -15 6 0 10 -7 10 -16 0 -9 6 -14 13 -11 9 3 13 -2 12
-16 -1 -11 -10 -23 -20 -27 -13 -5 -15 -9 -7 -14 7 -4 10 -12 6 -17 -3 -5 -2
-9 3 -8 24 4 33 -4 33 -31 0 -16 5 -30 10 -30 6 0 15 -20 22 -45 10 -36 16
-44 30 -39 14 4 20 -1 24 -26 5 -24 10 -29 25 -25 19 6 24 -3 20 -33 -3 -18
29 -123 42 -140 6 -7 12 -34 13 -60 2 -26 5 -56 7 -67 3 -11 8 -45 12 -75 10
-76 21 -92 28 -40 6 46 40 162 66 225 24 58 22 472 -2 529 -10 21 -20 71 -23
110 -5 51 -16 90 -39 136 -17 36 -40 95 -49 131 -14 49 -28 77 -57 108 -29 30
-39 50 -39 74 0 21 -7 36 -20 44 -11 7 -27 27 -36 45 -9 18 -23 38 -30 46 -8
7 -14 24 -14 37 0 33 -41 75 -74 75 -14 0 -26 4 -26 9 0 6 -22 22 -50 37 -27
15 -50 31 -50 35 0 5 -18 13 -40 19 -22 6 -40 15 -40 21 0 20 -104 109 -128
109 -13 0 -37 14 -54 31 -17 16 -36 28 -43 25 -7 -2 -37 2 -66 11 -42 13 -56
13 -72 3 -17 -10 -19 -10 -14 4 5 12 -3 17 -31 21 -20 3 -51 13 -68 21 -19 9
-41 13 -57 9 -17 -5 -33 -2 -43 5 -10 9 -58 14 -142 16 -69 2 -138 6 -152 9
-14 2 -34 -1 -45 -7z m255 -648 c0 -5 -7 -10 -15 -10 -8 0 -15 5 -15 10 0 6 7
10 15 10 8 0 15 -4 15 -10z m20 -50 c0 -5 -4 -10 -10 -10 -5 0 -10 5 -10 10 0
6 5 10 10 10 6 0 10 -4 10 -10z m44 -9 c3 -5 -1 -12 -10 -15 -20 -8 -29 -1
-19 13 8 13 22 14 29 2z m73 -7 c-3 -3 -12 -4 -19 -1 -8 3 -5 6 6 6 11 1 17
-2 13 -5z m-227 -28 c0 -2 -7 -6 -15 -10 -8 -3 -15 -1 -15 4 0 6 7 10 15 10 8
0 15 -2 15 -4z m-173 -12 c-3 -3 -12 -4 -19 -1 -8 3 -5 6 6 6 11 1 17 -2 13
-5z m151 -28 c-10 -7 -15 -15 -12 -18 2 -3 -2 -8 -10 -11 -8 -3 -17 0 -20 8
-3 8 5 17 22 24 37 13 40 13 20 -3z m350 -30 c-2 -1 -12 -8 -22 -16 -18 -14
-19 -14 -7 8 7 12 17 20 22 16 6 -3 9 -7 7 -8z m562 -136 c0 -5 -4 -10 -10
-10 -5 0 -10 5 -10 10 0 6 5 10 10 10 6 0 10 -4 10 -10z m49 -19 c0 -10 -2
-11 -6 -3 -2 6 -11 12 -19 12 -8 0 -14 4 -14 9 0 5 9 7 20 4 11 -3 20 -13 19
-22z m-42 -7 c-3 -3 -12 -4 -19 -1 -8 3 -5 6 6 6 11 1 17 -2 13 -5z m-47 -64
c0 -5 -5 -10 -11 -10 -5 0 -7 5 -4 10 3 6 8 10 11 10 2 0 4 -4 4 -10z m-513
-26 c-3 -3 -12 -4 -19 -1 -8 3 -5 6 6 6 11 1 17 -2 13 -5z m541 -19 c1 -20 -3
-25 -21 -24 -17 1 -18 2 -4 6 9 2 17 9 17 14 0 6 -4 8 -9 4 -5 -3 -12 -1 -15
4 -4 5 2 12 11 14 10 3 18 5 18 6 0 0 2 -10 3 -24z m-558 -23 c0 -8 8 -21 18
-28 16 -13 16 -13 0 -14 -10 0 -18 5 -18 11 0 5 -4 8 -8 5 -4 -2 -14 -1 -22 4
-11 7 -11 11 -1 24 7 8 9 21 5 28 -6 10 -3 9 9 -1 9 -7 17 -20 17 -29z m588
-117 c-3 -3 -9 2 -12 12 -6 14 -5 15 5 6 7 -7 10 -15 7 -18z m-2055 -218 c2
-6 -2 -18 -9 -25 -11 -10 -13 -8 -12 13 3 27 13 33 21 12z m2007 -262 c10 -12
10 -15 -1 -15 -8 0 -2 -11 14 -26 l27 -25 -21 -30 c-17 -25 -24 -28 -36 -18
-12 10 -16 10 -24 -2 -7 -11 -9 -11 -9 0 0 8 -6 11 -16 7 -10 -4 -13 -2 -8 6
5 7 0 9 -13 6 -11 -3 -27 -1 -36 3 -9 6 -18 5 -21 0 -4 -5 -18 -7 -34 -5 -15
3 -37 6 -49 6 -22 2 -34 28 -13 28 6 0 10 7 10 15 0 8 12 21 28 28 29 15 56
12 46 -5 -4 -6 2 -6 14 1 17 9 21 8 25 -7 4 -13 5 -11 6 6 0 12 -5 23 -11 24
-12 1 55 13 93 16 9 1 22 -5 29 -13z m-983 -17 c-3 -8 -6 -5 -6 6 -1 11 2 17
5 13 3 -3 4 -12 1 -19z m52 19 c-2 -1 -13 -9 -24 -17 -19 -14 -19 -14 -6 3 7
9 18 17 24 17 6 0 8 -1 6 -3z m1 -77 c0 -3 10 -7 22 -7 13 -1 24 -7 26 -12 3
-8 10 -8 23 -1 15 9 19 7 19 -6 0 -13 6 -15 33 -10 l32 6 -25 -15 c-25 -14
-25 -14 -2 -15 12 0 22 -6 22 -12 0 -9 3 -9 9 1 7 11 10 9 13 -10 6 -37 -11
-80 -31 -77 -11 2 -16 -5 -17 -24 -1 -16 2 -28 5 -28 12 0 0 -75 -13 -85 -7
-5 -16 -22 -19 -37 -5 -20 -12 -26 -24 -21 -10 4 -14 2 -10 -4 4 -6 0 -13 -8
-17 -19 -7 -19 8 0 24 12 10 13 16 3 28 -8 10 -9 13 -2 9 7 -4 22 1 33 11 22
17 22 17 -16 19 -27 2 -33 -1 -23 -7 13 -8 12 -10 -2 -10 -10 0 -18 7 -18 15
0 8 8 15 18 15 15 1 15 2 -2 15 -22 17 -40 20 -31 6 3 -6 -14 -9 -38 -8 -43 2
-44 2 -28 23 9 12 19 20 23 17 5 -2 4 7 -1 20 -6 14 -7 28 -4 31 4 3 1 6 -6 6
-8 0 -11 6 -7 16 3 8 2 12 -4 9 -6 -3 -10 1 -10 9 0 9 -5 16 -11 16 -8 0 -8 4
1 15 13 15 5 39 -11 30 -5 -4 -9 -2 -9 4 0 5 9 13 20 16 11 3 20 13 20 21 0 8
5 12 10 9 6 -3 10 0 10 8 0 7 7 14 15 14 8 0 15 -3 15 -7z m-149 -145 c-2 -22
-6 -34 -9 -26 -2 7 -13 22 -23 32 -26 26 -24 35 9 34 26 0 27 -2 23 -40z m744
-59 c8 -18 5 -19 -35 -12 -53 8 -81 23 -74 39 3 6 24 26 47 44 l42 32 6 -42
c3 -23 10 -51 14 -61z m-1175 53 c0 -18 -4 -28 -10 -24 -5 3 -10 20 -10 36 0
18 4 28 10 24 6 -3 10 -20 10 -36z m119 14 c0 -25 -1 -25 -8 -8 -5 11 -7 23
-4 28 8 14 13 7 12 -20z m87 2 c20 -14 43 -25 52 -25 12 0 12 -2 1 -17 -9 -11
-10 -14 -2 -9 8 4 11 2 7 -7 -2 -7 -10 -14 -17 -14 -7 0 -34 -3 -61 -7 -48 -7
-49 -7 -43 16 4 13 7 38 7 56 0 39 8 40 56 7z m998 9 c7 -18 0 -34 -15 -34 -5
0 -9 11 -9 25 0 28 15 34 24 9z m-1144 -4 c0 -5 -4 -10 -10 -10 -5 0 -10 5
-10 10 0 6 5 10 10 10 6 0 10 -4 10 -10z m1210 0 c0 -5 -7 -10 -16 -10 -8 0
-12 5 -9 10 3 6 10 10 16 10 5 0 9 -4 9 -10z m60 -17 c0 -20 -3 -24 -11 -16
-7 7 -9 19 -6 27 10 24 17 19 17 -11z m-1389 -17 c4 -16 15 -36 24 -46 27 -30
-1 -34 -61 -10 -30 12 -54 29 -54 36 0 16 59 56 74 51 6 -2 13 -16 17 -31z
m419 30 c0 -3 -4 -8 -10 -11 -5 -3 -10 -1 -10 4 0 6 5 11 10 11 6 0 10 -2 10
-4z m1075 -22 c32 -29 28 -35 -39 -57 l-48 -16 6 24 c21 82 36 91 81 49z
m-1114 -15 c17 -17 29 -33 26 -35 -5 -5 -67 54 -67 62 0 9 12 2 41 -27z m-34
-76 c2 -6 -5 -13 -16 -16 -18 -4 -19 0 -12 31 2 8 25 -5 28 -15z m970 -7 c-3
-7 -1 -18 4 -23 5 -5 -5 -7 -26 -5 -19 2 -35 8 -35 12 0 5 -8 6 -19 3 -10 -3
-22 0 -25 5 -4 7 6 10 24 10 17 -1 33 2 37 5 13 13 45 7 40 -7z m211 -21 c2
-22 -1 -23 -36 -18 -20 3 -38 10 -40 14 -2 4 -11 5 -20 2 -10 -4 -14 -2 -9 3
11 12 79 32 92 27 6 -2 12 -14 13 -28z m-923 -5 c-3 -5 -16 -10 -28 -9 -21 0
-21 1 -2 9 28 12 37 12 30 0z m992 -16 c-3 -3 -12 -4 -19 -1 -8 3 -5 6 6 6 11
1 17 -2 13 -5z m56 -1 c-7 -2 -21 -2 -30 0 -10 3 -4 5 12 5 17 0 24 -2 18 -5z
m137 3 c0 -3 -4 -8 -10 -11 -5 -3 -10 -1 -10 4 0 6 5 11 10 11 6 0 10 -2 10
-4z m-312 -31 c-3 -3 -9 2 -12 12 -6 14 -5 15 5 6 7 -7 10 -15 7 -18z m-793
-15 c-3 -5 -12 -10 -18 -10 -7 0 -6 4 3 10 19 12 23 12 15 0z m20 -99 c-3 -6
-11 -11 -17 -11 -6 0 -6 6 2 15 14 17 26 13 15 -4z m379 -76 c3 -9 0 -15 -9
-15 -9 0 -12 6 -9 15 4 8 7 15 9 15 2 0 5 -7 9 -15z m-264 -20 c0 -8 -4 -15
-10 -15 -5 0 -10 7 -10 15 0 8 5 15 10 15 6 0 10 -7 10 -15z m370 -9 c0 -8 6
-17 13 -19 7 -3 5 -6 -5 -6 -10 -1 -18 1 -18 3 0 2 -3 11 -6 20 -3 9 -1 16 5
16 6 0 11 -6 11 -14z m-85 -6 c-3 -5 -1 -10 4 -10 6 0 11 -8 11 -17 0 -14 -2
-15 -9 -5 -4 8 -12 13 -17 12 -5 0 -10 6 -12 14 -2 9 3 16 13 16 9 0 13 -4 10
-10z m289 -146 c3 -8 2 -12 -4 -9 -6 3 -10 10 -10 16 0 14 7 11 14 -7z m-444
-154 c0 -5 -4 -10 -10 -10 -5 0 -10 5 -10 10 0 6 5 10 10 10 6 0 10 -4 10 -10z
m-400 -10 c9 0 10 -3 5 -9 -12 -12 -65 -2 -65 11 0 6 10 8 23 4 12 -3 29 -6
37 -6z m1090 -90 c0 -5 -5 -10 -11 -10 -5 0 -7 5 -4 10 3 6 8 10 11 10 2 0 4
-4 4 -10z m-930 -120 c25 0 60 4 79 10 21 6 40 6 51 0 12 -7 20 -6 22 1 2 6
23 -1 51 -15 26 -14 47 -22 47 -18 0 4 4 2 8 -4 4 -6 21 -19 39 -28 18 -9 58
-34 89 -56 44 -31 53 -41 40 -46 -10 -4 -22 0 -29 10 -12 16 -106 72 -139 83
-10 3 -18 9 -18 13 0 5 -10 6 -22 2 -16 -4 -19 -2 -13 8 5 9 4 11 -3 6 -7 -4
-27 -3 -46 2 -31 9 -33 8 -28 -12 5 -19 4 -20 -12 -6 -16 13 -20 12 -35 -5
-20 -25 -152 -62 -246 -70 -38 -3 -80 -13 -92 -21 -21 -13 -27 -11 -24 9 4 23
-69 -14 -121 -63 -12 -11 -24 -20 -27 -21 -49 -7 -52 -6 -34 12 10 9 29 31 42
49 14 17 54 51 90 74 132 86 197 110 256 94 16 -4 50 -8 75 -8z m-465 -40 c3
-5 1 -10 -4 -10 -6 0 -11 5 -11 10 0 6 2 10 4 10 3 0 8 -4 11 -10z m-20 -20
c3 -5 1 -10 -4 -10 -6 0 -11 5 -11 10 0 6 2 10 4 10 3 0 8 -4 11 -10z m1252
-66 c-3 -3 -12 -4 -19 -1 -8 3 -5 6 6 6 11 1 17 -2 13 -5z m-1730 -10 c-3 -3
-12 -4 -19 -1 -8 3 -5 6 6 6 11 1 17 -2 13 -5z m91 -18 c-10 -7 -15 -15 -12
-18 2 -3 -7 -5 -20 -5 -14 0 -31 6 -37 13 -9 12 -6 13 18 8 20 -4 33 -1 42 10
8 9 17 14 20 10 3 -3 -2 -11 -11 -18z m-94 -52 c3 -8 2 -12 -4 -9 -6 3 -10 10
-10 16 0 14 7 11 14 -7z m81 -95 c-4 -5 -12 -9 -18 -8 -9 0 -8 2 1 6 6 2 9 10
6 15 -4 7 -2 8 5 4 6 -4 9 -12 6 -17z m962 7 c122 -1 133 -5 133 -54 0 -13 7
-30 15 -38 8 -9 15 -12 15 -7 0 5 -5 14 -11 20 -7 7 -1 7 24 0 39 -12 43 -33
13 -60 -17 -15 -17 -18 -4 -13 10 3 20 2 22 -3 8 -13 -66 -32 -79 -21 -7 6
-14 7 -17 5 -3 -3 -16 -8 -29 -11 -13 -3 -35 -8 -49 -11 -14 -3 -95 -6 -180
-7 -158 -1 -213 9 -233 41 -5 7 -13 10 -19 7 -8 -5 -9 -1 -5 10 4 10 10 29 13
43 4 14 9 21 13 15 3 -5 15 -6 26 -1 l20 8 -20 0 c-16 1 -17 3 -5 10 8 6 18 7
23 4 4 -3 11 5 14 17 4 15 11 20 24 17 11 -3 19 -1 19 5 0 6 9 8 20 5 11 -3
20 -1 20 5 0 5 5 6 10 3 6 -4 16 -2 23 3 14 12 67 20 82 13 5 -3 60 -5 122 -5z
m-1007 -40 c0 -3 -4 -8 -10 -11 -5 -3 -10 -1 -10 4 0 6 5 11 10 11 6 0 10 -2
10 -4z m10 -46 c0 -5 -4 -10 -10 -10 -5 0 -10 5 -10 10 0 6 5 10 10 10 6 0 10
-4 10 -10z m491 -46 c6 -7 8 -18 4 -24 -15 -24 -85 2 -78 29 5 20 55 17 74 -5z
m-57 -49 c-4 -8 -2 -15 4 -15 6 0 8 -8 5 -18 -3 -14 -11 -18 -31 -14 -40 7
-54 21 -39 37 10 11 13 10 19 -4 6 -14 7 -14 7 2 1 10 6 15 11 12 6 -3 10 -1
10 4 0 6 4 11 10 11 5 0 7 -7 4 -15z m431 -280 c17 -11 76 -23 122 -24 18 -1
44 -31 36 -44 -4 -7 -10 -4 -15 9 -7 15 -7 14 -4 -6 3 -14 2 -30 -2 -35 -4 -6
-41 -11 -82 -12 -112 -1 -125 -5 -123 -31 2 -16 -4 -23 -22 -28 -13 -3 -29 -3
-36 2 -8 4 -9 3 -5 -5 13 -20 -3 -49 -24 -44 -11 3 -20 9 -20 13 0 5 -18 16
-40 26 -22 10 -40 24 -40 31 0 7 -4 13 -9 13 -4 0 -7 11 -6 25 2 14 -1 27 -6
30 -12 8 20 55 37 55 8 0 14 5 14 11 0 7 11 9 30 6 17 -4 30 -2 30 3 0 5 6 7
14 4 8 -3 17 -1 20 4 9 14 108 12 131 -3z m195 -60 c10 -12 10 -15 -4 -15 -9
0 -16 7 -16 15 0 8 2 15 4 15 2 0 9 -7 16 -15z m53 -22 c-17 -13 -33 -9 -33 9
0 5 7 8 15 4 10 -3 15 1 15 12 0 15 2 15 10 2 7 -11 5 -19 -7 -27z m-723 -404
c0 -3 6 -6 13 -6 13 0 76 -40 88 -56 3 -5 10 -8 15 -8 5 1 9 -4 9 -9 0 -6 7
-15 15 -20 8 -5 11 -10 5 -10 -5 -1 3 -8 18 -16 16 -9 25 -20 20 -26 -5 -9 -8
-9 -11 0 -2 7 -9 12 -16 12 -7 0 -25 11 -40 25 -15 14 -32 25 -38 25 -5 0 -32
23 -59 50 -27 28 -54 50 -60 50 -5 0 -7 4 -4 10 6 10 45 -8 45 -21z m100 -961
c0 -9 25 -38 33 -38 2 0 2 15 0 33 -2 20 0 26 4 16 5 -9 16 -15 26 -13 9 1 17
-4 17 -12 0 -7 6 -11 14 -8 17 7 32 -14 19 -27 -6 -6 -14 -4 -22 5 -15 17 -41
10 -41 -11 0 -10 -6 -13 -16 -9 -9 3 -27 9 -40 12 -13 3 -24 10 -24 16 0 5 -5
6 -12 2 -7 -5 -9 -2 -5 8 3 9 0 21 -6 28 -9 10 -8 12 6 7 11 -4 17 -1 17 10 0
13 3 13 15 3 8 -7 15 -17 15 -22z"/>
<path d="M2925 3600 c-3 -5 -2 -10 4 -10 5 0 13 5 16 10 3 6 2 10 -4 10 -5 0
-13 -4 -16 -10z"/>
<path d="M2736 1772 c5 -4 12 -11 15 -15 3 -5 9 -2 12 5 3 9 -3 14 -15 15 -11
1 -16 -1 -12 -5z"/>
<path d="M2603 4715 c0 -8 4 -15 9 -15 4 0 8 4 8 9 0 6 -4 12 -8 15 -5 3 -9
-1 -9 -9z"/>
<path d="M2860 4720 c0 -5 4 -10 9 -10 6 0 13 5 16 10 3 6 -1 10 -9 10 -9 0
-16 -4 -16 -10z"/>
<path d="M2740 4710 c0 -5 5 -10 11 -10 5 0 7 5 4 10 -3 6 -8 10 -11 10 -2 0
-4 -4 -4 -10z"/>
<path d="M2960 4699 c-12 -8 -10 -9 9 -4 16 5 21 4 17 -4 -4 -6 -1 -11 7 -11
7 0 14 7 14 15 0 17 -25 20 -47 4z"/>
<path d="M3195 4700 c-3 -5 -1 -10 4 -10 6 0 11 5 11 10 0 6 -2 10 -4 10 -3 0
-8 -4 -11 -10z"/>
<path d="M2610 4685 c-17 -10 -20 -14 -9 -15 9 0 22 7 29 15 15 18 12 18 -20
0z"/>
<path d="M2623 4661 c-19 -16 -20 -20 -7 -25 8 -3 12 -2 9 4 -3 6 -2 10 3 10
6 0 12 7 16 15 7 19 6 19 -21 -4z"/>
<path d="M2719 4663 c-13 -15 -12 -15 9 -4 23 12 28 21 13 21 -5 0 -15 -7 -22
-17z"/>
<path d="M2755 4660 c-3 -5 1 -10 10 -10 9 0 13 5 10 10 -3 6 -8 10 -10 10 -2
0 -7 -4 -10 -10z"/>
<path d="M2728 4633 c7 -3 16 -2 19 1 4 3 -2 6 -13 5 -11 0 -14 -3 -6 -6z"/>
<path d="M2230 4620 c0 -5 5 -10 11 -10 5 0 7 5 4 10 -3 6 -8 10 -11 10 -2 0
-4 -4 -4 -10z"/>
<path d="M3222 4618 c5 -15 28 -23 28 -10 0 5 -7 13 -16 16 -10 4 -14 1 -12
-6z"/>
<path d="M2215 4530 c-3 -5 -1 -10 4 -10 6 0 11 5 11 10 0 6 -2 10 -4 10 -3 0
-8 -4 -11 -10z"/>
<path d="M2190 4391 c0 -5 -7 -17 -16 -25 -12 -13 -13 -16 -1 -16 7 0 19 11
25 25 7 15 8 25 2 25 -6 0 -10 -4 -10 -9z"/>
<path d="M2256 4305 c4 -8 11 -15 16 -15 6 0 5 6 -2 15 -7 8 -14 15 -16 15 -2
0 -1 -7 2 -15z"/>
<path d="M2280 4316 c0 -2 7 -9 15 -16 9 -7 15 -8 15 -2 0 5 -7 12 -15 16 -8
3 -15 4 -15 2z"/>
<path d="M3330 4290 c0 -5 5 -10 10 -10 6 0 10 5 10 10 0 6 -4 10 -10 10 -5 0
-10 -4 -10 -10z"/>
<path d="M3415 4189 c-4 -6 -5 -12 -2 -15 2 -3 7 2 10 11 7 17 1 20 -8 4z"/>
<path d="M4118 4013 c7 -3 16 -2 19 1 4 3 -2 6 -13 5 -11 0 -14 -3 -6 -6z"/>
<path d="M3090 3970 c-9 -6 -10 -10 -3 -10 6 0 15 5 18 10 8 12 4 12 -15 0z"/>
<path d="M2070 3940 c-13 -8 -12 -10 3 -10 9 0 17 5 17 10 0 12 -1 12 -20 0z"/>
<path d="M2001 3877 c-13 -21 -12 -21 5 -5 10 10 16 20 13 22 -3 3 -11 -5 -18
-17z"/>
<path d="M1965 3849 c4 -5 -1 -19 -11 -30 -14 -15 -14 -19 -2 -19 8 0 23 6 33
14 16 12 17 16 6 30 -15 18 -36 22 -26 5z"/>
<path d="M4263 3483 c-15 -6 -17 -79 -3 -88 6 -4 7 -12 4 -18 -7 -13 32 27 54
55 10 12 10 18 1 24 -7 4 -9 3 -6 -3 4 -6 1 -13 -7 -16 -8 -3 -13 1 -13 11 0
43 -3 46 -30 35z"/>
<path d="M2390 3456 c0 -2 8 -10 18 -17 15 -13 16 -12 3 4 -13 16 -21 21 -21
13z"/>
<path d="M1710 3441 c0 -6 5 -13 10 -16 6 -3 10 1 10 9 0 9 -4 16 -10 16 -5 0
-10 -4 -10 -9z"/>
<path d="M4294 3381 c3 -5 16 -7 29 -4 12 3 19 3 16 -1 -4 -4 -20 -9 -35 -10
-16 -2 -32 -4 -36 -5 -13 -2 -9 -55 6 -76 19 -28 25 -83 10 -89 -9 -3 -11 1
-7 12 3 9 3 14 0 11 -4 -3 -9 -66 -11 -140 -4 -96 -2 -129 5 -116 6 10 9 36 7
58 -2 21 1 40 6 42 5 2 9 24 9 50 0 38 3 47 17 47 25 0 40 43 47 132 5 63 3
82 -8 89 -18 11 -62 12 -55 0z"/>
<path d="M1634 3313 c3 -21 8 -63 11 -94 6 -67 33 -139 45 -120 4 7 5 44 3 83
-4 58 -2 73 13 90 19 20 18 21 -16 49 -48 40 -61 38 -56 -8z"/>
<path d="M3915 3331 c-31 -6 -36 -16 -22 -38 5 -7 5 -19 1 -25 -4 -7 2 -4 13
7 11 11 16 22 11 23 -4 2 -5 8 -2 13 3 6 11 5 20 -2 8 -6 18 -9 21 -5 4 4 1
11 -6 15 -11 7 -11 10 0 14 18 7 3 6 -36 -2z"/>
<path d="M3865 3280 c-3 -5 -1 -10 4 -10 6 0 11 5 11 10 0 6 -2 10 -4 10 -3 0
-8 -4 -11 -10z"/>
<path d="M2374 3243 c3 -6 0 -13 -6 -16 -7 -2 -10 -8 -5 -12 4 -5 13 -3 19 3
9 9 9 15 -1 25 -9 8 -12 8 -7 0z"/>
<path d="M3990 3180 c0 -6 7 -10 15 -10 8 0 15 2 15 4 0 2 -7 6 -15 10 -8 3
-15 1 -15 -4z"/>
<path d="M3720 3127 c0 -9 4 -17 8 -17 4 0 8 -9 9 -20 1 -11 -3 -19 -10 -17
-6 1 -13 -7 -15 -18 -4 -17 -2 -18 12 -5 16 12 17 11 11 -13 -6 -22 -4 -27 11
-27 16 0 17 2 4 10 -12 8 -12 10 -1 10 10 0 12 9 6 37 -8 43 -35 89 -35 60z"/>
<path d="M2578 3103 c7 -3 16 -2 19 1 4 3 -2 6 -13 5 -11 0 -14 -3 -6 -6z"/>
<path d="M3556 3065 c4 -8 8 -15 10 -15 2 0 4 7 4 15 0 8 -4 15 -10 15 -5 0
-7 -7 -4 -15z"/>
<path d="M2525 3010 c-3 -5 -1 -10 4 -10 6 0 11 5 11 10 0 6 -2 10 -4 10 -3 0
-8 -4 -11 -10z"/>
<path d="M3470 2939 c0 -5 5 -7 12 -3 6 4 17 -1 25 -11 7 -11 13 -14 13 -9 0
14 -22 34 -37 34 -7 0 -13 -5 -13 -11z"/>
<path d="M3530 2924 c0 -8 5 -12 10 -9 6 4 8 11 5 16 -9 14 -15 11 -15 -7z"/>
<path d="M3595 2910 c3 -5 11 -10 16 -10 6 0 7 5 4 10 -3 6 -11 10 -16 10 -6
0 -7 -4 -4 -10z"/>
<path d="M4248 2895 c-6 -29 7 -43 16 -19 9 23 7 44 -3 44 -5 0 -11 -11 -13
-25z"/>
<path d="M2030 2690 c0 -5 7 -7 15 -4 8 4 15 8 15 10 0 2 -7 4 -15 4 -8 0 -15
-4 -15 -10z"/>
<path d="M2021 2224 c0 -11 3 -14 6 -6 3 7 2 16 -1 19 -3 4 -6 -2 -5 -13z"/>
</g>
</svg>
